<svg xmlns="http://www.w3.org/2000/svg" xmlns:xlink="http://www.w3.org/1999/xlink" width="57.85400390625" height="57.85400390625" viewBox="489 -82.9267578125 57.85400390625 57.85400390625"><defs><clipPath id="clip-33570e38"><path d="M 28.927001953125 57.85400390625 C 12.95106029510498 57.85400390625 0 44.9029426574707 0 28.927001953125 C 0 12.95106029510498 12.95106029510498 0 28.927001953125 0 C 44.9029426574707 0 57.85400390625 12.95106029510498 57.85400390625 28.927001953125 C 57.85400390625 44.9029426574707 44.9029426574707 57.85400390625 28.927001953125 57.85400390625 Z" fill="#554886" fill-rule="evenodd"/></clipPath><clipPath id="clip-33570e38"><path d="M 28.927001953125 57.85400390625 C 12.95106029510498 57.85400390625 0 44.9029426574707 0 28.927001953125 C 0 12.95106029510498 12.95106029510498 0 28.927001953125 0 C 44.9029426574707 0 57.85400390625 12.95106029510498 57.85400390625 28.927001953125 C 57.85400390625 44.9029426574707 44.9029426574707 57.85400390625 28.927001953125 57.85400390625 Z" fill="#554886" fill-rule="evenodd"/></clipPath></defs><g transform="matrix(1,0,0,1,489,-82.9267578125)"><g><g><path d="M 28.927001953125 57.85400390625 C 12.95106029510498 57.85400390625 0 44.9029426574707 0 28.927001953125 C 0 12.95106029510498 12.95106029510498 0 28.927001953125 0 C 44.9029426574707 0 57.85400390625 12.95106029510498 57.85400390625 28.927001953125 C 57.85400390625 44.9029426574707 44.9029426574707 57.85400390625 28.927001953125 57.85400390625 Z" fill="#554886" fill-rule="evenodd"/><g clip-path="url(#clip-33570e38)"><ellipse cx="28.55931854248047" cy="28.55931854248047" rx="28.55931854248047" ry="28.55931854248047" transform="matrix(1,0,0,1,0.36768263578414917,0.36768263578414917)" fill="#544785" fill-rule="evenodd"/><g transform="matrix(1,0,0,1,4.8225274085998535,5.363010883331299)"><path d="M 12.33474349975586 27.13642501831055 L 0 31.65915489196777 L 0 34.72793579101562 L 48.37959671020508 34.72793579101562 L 30.97391510009766 26.72525978088379 L 33.85202026367188 22.13399696350098 L 25.70306968688965 6.466869354248047 L 21.10465621948242 1.36183774471283 C 21.10465621948242 1.36183774471283 17.54272270202637 0 17.26860809326172 0 C 16.99449348449707 0 13.4311351776123 3.837471723556519 13.4311351776123 3.837471723556519 L 15.14358520507812 12.1976900100708 L 12.33474349975586 27.13642501831055 Z" transform="matrix(1,0,0,1,0.0003310432657599449,17.847259521484375)" fill="#ffa787" fill-rule="evenodd"/><path d="M 12.6086950302124 18.24843978881836 L 17.54277229309082 22.08600044250488 L 19.18476104736328 19.0240592956543 L 5.537848472595215 0 L 0 5.776618957519531 L 12.6086950302124 18.24843978881836 Z" transform="matrix(1,0,0,1,13.43152904510498,22.4863338470459)" fill="#ffa787" fill-rule="evenodd" opacity="0.4000000059604645"/><path d="M 17.98270416259766 24.37342643737793 C 17.80179595947266 24.38576507568359 17.60991668701172 24.39262199401855 17.40570831298828 24.39536285400391 C 17.40570831298828 24.39536285400391 18.57065963745117 25.28620719909668 17.13159942626953 27.68463134765625 L 16.44633865356445 29.32925987243652 L 9.18254566192627 33.44084167480469 L 4.248651504516602 27.27346801757812 L 0.4111488461494446 21.04990768432617 L 0 12.88294887542725 L 0 7.806506156921387 L 0.8223132491111755 5.756207942962646 L 2.466939449310303 3.015158891677856 C 2.466939449310303 3.015158891677856 5.619153022766113 0 5.89326286315918 0 C 6.167371273040771 0 12.06063461303711 1.507587075233459 12.06063461303711 1.507587075233459 L 15.21284770965576 3.426315546035767 L 15.7610502243042 4.65980052947998 C 15.85287952423096 4.933905124664307 17.52492141723633 9.707431793212891 18.63093948364258 12.86514186859131 C 19.2531566619873 14.63994979858398 19.03935050964355 15.88166236877441 18.2965259552002 17.61126708984375 L 17.74832153320312 18.43359565734863 C 17.74832153320312 18.43359565734863 18.25540542602539 19.06813812255859 18.40890502929688 19.22026634216309 C 19.42861557006836 20.48799514770508 21.17465782165527 22.90560913085938 20.19199371337891 23.50453186035156 C 19.48932838439941 23.87358856201172 18.74851989746094 24.16493797302246 17.98270416259766 24.37342643737793 Z" transform="matrix(1,0,0,1,24.052997589111328,6.540421962738037)" fill="#ffa787" fill-rule="evenodd"/><path d="M 1.644641995429993 12.68917655944824 C 1.644641995429993 12.68917655944824 -0.4319946765899658 18.68274688720703 5.12905740737915 20.82544136047363 L 11.78422069549561 25.25124549865723 C 11.980055809021 25.38172912597656 12.19022178649902 25.48928451538086 12.4105978012085 25.57181549072266 C 13.81315326690674 26.09624290466309 18.96947479248047 27.78879928588867 19.3244457244873 24.4757022857666 C 19.3244457244873 24.4757022857666 18.63918876647949 20.37120819091797 19.73561096191406 19.54180717468262 L 17.81686019897461 19.26769638061523 C 17.81686019897461 19.26769638061523 17.37645149230957 22.13035774230957 15.21272563934326 20.75036239624023 C 14.97100067138672 20.59519577026367 14.76717376708984 20.38778877258301 14.61623764038086 20.14340019226074 C 14.46530151367188 19.89901161193848 14.37111282348633 19.62387466430664 14.34061241149902 19.33825874328613 C 14.1834192276001 17.89976692199707 13.53142833709717 14.853835105896 10.82717227935791 14.33380317687988 C 9.871081352233887 14.02270984649658 8.952396392822266 13.60665416717529 8.087933540344238 13.09323978424072 C 6.797186851501465 12.31472969055176 5.804277420043945 11.12646865844727 5.267520427703857 9.717923164367676 C 4.730762481689453 8.309379577636719 4.681059837341309 6.761661529541016 5.126365661621094 5.321589469909668 L 6.304427146911621 1.450855016708374 C 6.304427146911621 1.450855016708374 3.837478160858154 0.06038138642907143 3.631897926330566 0.001824363367632031 C 3.426316976547241 -0.0567326657474041 0 1.313800096511841 0 1.313800096511841 L 0.4111643433570862 3.780755281448364 C 0.4111643433570862 3.780755281448364 3.0151686668396 5.562435626983643 1.644641995429993 12.68917655944824 Z" transform="matrix(1,0,0,1,20.83222198486328,16.259244918823242)" fill="#5e1212" fill-rule="evenodd"/><path d="M 28.87141036987305 8.625577926635742 C 28.87141036987305 8.625577926635742 31.90838432312012 10.46616172790527 32.32635879516602 7.888059616088867 C 32.42359161376953 7.238794803619385 32.32640838623047 6.575278282165527 32.04706192016602 5.981167316436768 C 31.7677173614502 5.38705587387085 31.3187255859375 4.888953685760498 30.75668144226074 4.549672603607178 C 26.73785018920898 2.075424194335938 14.93877696990967 -3.992828845977783 6.531822204589844 3.965785264968872 C 6.531822204589844 3.965785264968872 0.5753766894340515 8.573609352111816 0.5696684718132019 13.31132411956787 C 0.5726245641708374 14.56983184814453 0.4722991287708282 15.82644939422607 0.2697074115276337 17.06855010986328 C -0.3025200366973877 20.50136566162109 -0.4955114126205444 26.61802101135254 5.366152286529541 26.71653175354004 C 5.366152286529541 26.71653175354004 7.148558139801025 17.60252571105957 12.63064384460449 17.0543155670166 C 13.74434852600098 16.71868896484375 14.83992671966553 16.32561874389648 15.91298007965088 15.87668800354004 C 16.93418502807617 15.44381904602051 17.79168510437012 14.69806289672852 18.36202049255371 13.74677658081055 C 18.93235778808594 12.79549121856689 19.18611145019531 11.6877498626709 19.08674430847168 10.58305358886719 C 19.05974197387695 10.28867721557617 19.04782295227051 9.993103981018066 19.05105400085449 9.697511672973633 C 19.06269454956055 8.917034149169922 19.37958145141602 8.172164916992188 19.93379592895508 7.622506141662598 C 20.48801231384277 7.072847366333008 21.2354793548584 6.762138366699219 22.01602554321289 6.756944179534912 L 22.01602554321289 6.756944179534912 C 23.77087593078613 6.74382495880127 26.70691108703613 7.002193927764893 28.87141036987305 8.625577926635742 Z" transform="matrix(1,0,0,1,9.777693748474121,3.328308343887329)" fill="#5e1212" fill-rule="evenodd"/><path d="M 12.26492977142334 1.94919228553772 C 12.26492977142334 1.94919228553772 6.391534805297852 -2.436490774154663 3.640551090240479 1.94919228553772 C 3.640551090240479 1.94919228553772 -1.988542318344116 6.746038913726807 0.752500057220459 8.801830291748047 C 0.752500057220459 8.801830291748047 2.095948219299316 13.53694725036621 6.837799549102783 10.82675743103027 L 9.523866653442383 13.05046653747559 L 11.99080562591553 9.761198043823242 L 11.57967090606689 8.116564750671387 C 11.16854095458984 8.116564750671387 15.96535301208496 2.634478330612183 12.26492977142334 1.94919228553772 Z" transform="matrix(1,0,0,1,6.100464820861816,0)" fill="#5e1212" fill-rule="evenodd"/><path d="M 1.370502829551697 5.939860820770264 C 1.182378888130188 5.991192817687988 0.9849863648414612 5.998698711395264 0.7935082316398621 5.961797714233398 C 0.6623454093933105 5.945303916931152 0.5363718271255493 5.900327682495117 0.4244241714477539 5.830018520355225 C 0.3124764263629913 5.759708881378174 0.217256486415863 5.665767669677734 0.1454413384199142 5.554779529571533 C 0.07362619042396545 5.44379186630249 0.02695988677442074 5.318449020385742 0.008695977739989758 5.187520980834961 C -0.009567931294441223 5.05659294128418 0.001014746725559235 4.923243999481201 0.03971469774842262 4.796840190887451 C 0.03971469774842262 4.659787654876709 1.136137366294861 0 1.136137366294861 0 C 1.136137366294861 0 1.308826327323914 0.193243533372879 1.566485404968262 0.5043597221374512 C 1.636382699012756 0.5893284678459167 1.714514374732971 0.6838964223861694 1.796735525131226 0.7866842150688171 C 2.816426753997803 2.05443286895752 4.562457084655762 4.472042083740234 3.579793691635132 5.07096529006958 C 2.877127885818481 5.440022945404053 2.136320352554321 5.731372356414795 1.370502829551697 5.939860820770264 Z" transform="matrix(1,0,0,1,40.66518783569336,24.97390365600586)" fill="#ff8d69" fill-rule="evenodd"/><path d="M 5.89326286315918 11.10126686096191 C 3.660370349884033 11.10126686096191 0 7.126949787139893 0 4.591265678405762 C 0 2.055580377578735 1.810143947601318 0 4.04306173324585 0 C 6.275980472564697 0 8.086108207702637 2.055580377578735 8.086108207702637 4.591265678405762 C 8.086108207702637 7.126949787139893 8.126154899597168 11.10126686096191 5.89326286315918 11.10126686096191 Z" transform="matrix(1,0,0,1,16.30956268310547,17.847259521484375)" fill="#ffa787" fill-rule="evenodd"/><path d="M 1.420023679733276 4.887513637542725 C 1.565299272537231 5.047112464904785 1.721227526664734 5.196680068969727 1.88675856590271 5.335157871246338 L 3.954245090484619 7.067642211914062 C 4.385204792022705 6.205718040466309 4.628629207611084 5.262261390686035 4.668495655059814 4.299426555633545 C 4.708361148834229 3.336591958999634 4.543762683868408 2.376243114471436 4.185531139373779 1.481642484664917 L 3.922096967697144 0.8237826228141785 C 3.801734447479248 0.5227519273757935 3.574045181274414 0.2770261168479919 3.283034086227417 0.134130597114563 C 2.992022752761841 -0.008764929138123989 2.658358097076416 -0.03868753463029861 2.346562623977661 0.05014026165008545 L 2.346562623977661 0.05014026165008545 C 0.7693000435829163 0.4998649060726166 -1.520059823989868 1.650553584098816 1.420023679733276 4.887513637542725 Z" transform="matrix(1,0,0,1,17.83732795715332,19.825023651123047)" fill="#ff8d69" fill-rule="evenodd"/><path d="M 0 5.619466304779053 L 11.64955711364746 0 L 30.97423553466797 0.6853860020637512 L 48.37963104248047 8.687994956970215 L 0 8.687994956970215 L 0 5.619466304779053 Z" transform="matrix(1,0,0,1,0,43.88701248168945)" fill="#f98b91" fill-rule="evenodd"/><path d="M 3.698374509811401 0.1249276250600815 C 3.330316543579102 0.01107291970402002 2.942701816558838 -0.02552048675715923 2.559840679168701 0.01745280250906944 C 2.176979064941406 0.06042609363794327 1.807132601737976 0.1820383071899414 1.473473787307739 0.3746553957462311 C 1.139814972877502 0.5672725439071655 0.8495447039604187 0.826743483543396 0.6208688616752625 1.136803030967712 C 0.3921930491924286 1.446862578392029 0.230036273598671 1.800827980041504 0.144572988152504 2.176494836807251 C -0.0587528832256794 3.070831537246704 -0.04746661335229874 4.000590801239014 0.177510067820549 4.889727592468262 C 0.4024867713451385 5.778864860534668 0.8347646594047546 6.602116584777832 1.438974142074585 7.292123794555664 C 1.438974142074585 7.292123794555664 18.24974632263184 9.917808532714844 22.63543510437012 5.943281173706055 L 3.698374509811401 0.1249276250600815 Z" transform="matrix(1,0,0,1,8.338759422302246,38.62921905517578)" fill="#f26c7f" fill-rule="evenodd"/><path d="M 3.698374509811401 0.1249276250600815 C 3.330316543579102 0.01107291970402002 2.942701816558838 -0.02552048675715923 2.559840679168701 0.01745280250906944 C 2.176979064941406 0.06042609363794327 1.807132601737976 0.1820383071899414 1.473473787307739 0.3746553957462311 C 1.139814972877502 0.5672725439071655 0.8495447039604187 0.826743483543396 0.6208688616752625 1.136803030967712 C 0.3921930491924286 1.446862578392029 0.230036273598671 1.800827980041504 0.144572988152504 2.176494836807251 C -0.0587528832256794 3.070831537246704 -0.04746661335229874 4.000590801239014 0.177510067820549 4.889727592468262 C 0.4024867713451385 5.778864860534668 0.8347646594047546 6.602116584777832 1.438974142074585 7.292123794555664 C 1.438974142074585 7.292123794555664 18.24974632263184 9.917808532714844 22.63543510437012 5.943281173706055 L 3.698374509811401 0.1249276250600815 Z" transform="matrix(1,0,0,1,8.338759422302246,38.62921905517578)" fill="#f3626b" fill-rule="evenodd" opacity="0.5"/><path d="M 0.07865699380636215 5.205388069152832 C 0.04241769015789032 5.176940441131592 0.01679228246212006 5.137147903442383 0.005867429543286562 5.092390537261963 C -0.00505742384120822 5.047632694244385 -0.000642829283606261 5.000498294830322 0.01841415278613567 4.958553314208984 C 0.03747113421559334 4.916608333587646 0.07006261497735977 4.882285118103027 0.1109597682952881 4.861072063446045 L 1.090408682823181 4.353742122650146 C 1.664196491241455 4.093142986297607 2.194971084594727 3.74673318862915 2.664504289627075 3.326395750045776 C 3.051034688949585 2.930817127227783 3.322126150131226 2.437136888504028 3.448511838912964 1.898699283599854 C 3.574897766113281 1.360261917114258 3.551769733428955 0.7975237965583801 3.381616353988647 0.2712763547897339 C 3.364205360412598 0.2195931971073151 3.368042230606079 0.1631214618682861 3.392275810241699 0.1142643690109253 C 3.416510105133057 0.06540726870298386 3.459160327911377 0.02817673608660698 3.51084303855896 0.0107654994353652 C 3.562526226043701 -0.006645739078521729 3.61901330947876 -0.002824563533067703 3.667870759963989 0.02140932902693748 C 3.716727733612061 0.04564322158694267 3.753942966461182 0.08829350024461746 3.771353721618652 0.1399766504764557 C 3.96500039100647 0.7389775514602661 3.991312265396118 1.379514694213867 3.847423315048218 1.992374658584595 C 3.703534603118896 2.605233907699585 3.39492392539978 3.167133808135986 2.954935312271118 3.617368459701538 C 2.456633329391479 4.068772315979004 1.891476273536682 4.440330028533936 1.279522061347961 4.718865871429443 L 0.3002126216888428 5.226180553436279 C 0.2710213661193848 5.241342544555664 0.2386115342378616 5.249268531799316 0.2057176977396011 5.24927806854248 C 0.1596463471651077 5.249293327331543 0.1148962900042534 5.233835220336914 0.07865699380636215 5.205388069152832 Z" transform="matrix(1,0,0,1,11.115826606750488,27.850614547729492)" fill="#5e1212" fill-rule="evenodd"/><path d="M 0.2879524528980255 2.4329514503479 C 0.2265471965074539 2.426284313201904 0.1682115346193314 2.402701139450073 0.119414821267128 2.364833831787109 C 0.07061813026666641 2.326966285705566 0.03328779712319374 2.276293039321899 0.01158417388796806 2.218465566635132 C -0.007411749567836523 2.155847311019897 -0.002933005103841424 2.088452577590942 0.02419278025627136 2.028903484344482 C 0.05131856724619865 1.969353914260864 0.09923040121793747 1.921739339828491 0.1589424163103104 1.894973516464233 C 0.2127630561590195 1.868866801261902 0.2744287252426147 1.86394739151001 0.3317035734653473 1.881204605102539 C 0.3889783620834351 1.898462176322937 0.4376701414585114 1.936627864837646 0.4681085646152496 1.988122463226318 C 0.4793898463249207 2.006993770599365 0.4875697195529938 2.027551889419556 0.4923356771469116 2.049015283584595 C 0.7802768349647522 2.073135614395142 1.068558812141418 2.006657123565674 1.316861033439636 1.858880758285522 C 1.565163373947144 1.711104035377502 1.761063933372498 1.489422917366028 1.877178311347961 1.224830269813538 C 1.914251208305359 1.132611989974976 1.945304274559021 1.031039237976074 1.978093504905701 0.9234302639961243 C 2.004607677459717 0.7349306344985962 2.074064016342163 0.5550350546836853 2.181084394454956 0.3976127505302429 C 2.288105010986328 0.2401904761791229 2.429841995239258 0.1094319373369217 2.595373630523682 0.01544045936316252 C 2.620340824127197 0.005175934173166752 2.647078514099121 -7.05993443261832e-05 2.674073219299316 7.172200753302604e-07 C 2.701067924499512 7.203377754194662e-05 2.727782487869263 0.005461866967380047 2.752695083618164 0.01585816591978073 C 2.777607679367065 0.02625446952879429 2.800227880477905 0.04146084189414978 2.819265365600586 0.06059938669204712 C 2.838303089141846 0.07973792403936386 2.853386402130127 0.1024346724152565 2.863650798797607 0.1274017691612244 C 2.873915195465088 0.152368888258934 2.879162073135376 0.1791219413280487 2.879091024398804 0.2061166167259216 C 2.879019498825073 0.2331112772226334 2.873629570007324 0.259826123714447 2.863233327865601 0.2847386300563812 C 2.852837085723877 0.3096511960029602 2.837646007537842 0.3322713077068329 2.818507194519043 0.3513090014457703 C 2.799369096755981 0.3703466653823853 2.776656866073608 0.385429859161377 2.751689434051514 0.3956944048404694 C 2.542499542236328 0.4817531406879425 2.459383249282837 0.7545126080513 2.371311902999878 1.043343544006348 C 2.337453126907349 1.154561758041382 2.302372455596924 1.269601345062256 2.258623361587524 1.378345727920532 C 2.121272325515747 1.699800729751587 1.89295220375061 1.974093675613403 1.601753711700439 2.167489528656006 C 1.310555100440979 2.360885858535767 0.9691770076751709 2.464953899383545 0.6196128726005554 2.466878414154053 L 0.6196128726005554 2.466878414154053 C 0.5081897377967834 2.466964960098267 0.3970499932765961 2.455597639083862 0.2879524528980255 2.4329514503479 Z" transform="matrix(1,0,0,1,10.524858474731445,28.30011749267578)" fill="#5e1212" fill-rule="evenodd"/><path d="M 2.19338583946228 5.408155918121338 C 1.543536424636841 5.239436626434326 0.9618470668792725 4.873715400695801 0.5281523466110229 4.36119270324707 C 0.3289629220962524 4.149367332458496 0.179794505238533 3.895583629608154 0.09161613136529922 3.618507385253906 C 0.003437748644500971 3.341431379318237 -0.02151602692902088 3.048111438751221 0.01860997453331947 2.760124206542969 C 0.1776917576789856 2.239990234375 0.4885157644748688 1.779223799705505 0.9112064242362976 1.436909079551697 C 1.303357481956482 1.046628713607788 1.67368471622467 0.6780175566673279 1.673416256904602 0.2057136744260788 C 1.673394680023193 0.1511952579021454 1.695025563240051 0.09890345484018326 1.733550667762756 0.0603279322385788 C 1.772075891494751 0.02175241149961948 1.824348211288452 4.973435716237873e-05 1.878866672515869 9.018974012064973e-09 L 1.879005908966064 9.018974012064973e-09 C 1.933510184288025 -1.612767846381757e-05 1.985784769058228 0.02162211202085018 2.024337768554688 0.06015001237392426 C 2.062890291213989 0.09867792576551437 2.084561586380005 0.1509387791156769 2.084580183029175 0.2054429352283478 C 2.084848880767822 0.848814845085144 1.635680794715881 1.295908093452454 1.201235294342041 1.728345990180969 C 0.8395693302154541 2.016699314117432 0.568817138671875 2.403316259384155 0.4214819967746735 2.841770648956299 C 0.394321471452713 3.069049119949341 0.4180079698562622 3.299521923065186 0.4908525347709656 3.516516923904419 C 0.5636970996856689 3.733511686325073 0.6838735938072205 3.931597948074341 0.8426713347434998 4.096450805664062 C 1.221131682395935 4.543587207794189 1.728662490844727 4.862682342529297 2.295647144317627 5.009963512420654 C 2.344135999679565 5.022402763366699 2.38642144203186 5.052110195159912 2.414569854736328 5.093505382537842 C 2.442718505859375 5.134900569915771 2.454801321029663 5.185140609741211 2.448543548583984 5.234807014465332 C 2.442286252975464 5.284472942352295 2.418118000030518 5.330148220062256 2.380580902099609 5.36326789855957 C 2.34304404258728 5.396387100219727 2.294714689254761 5.414677143096924 2.244655609130859 5.414700031280518 L 2.244655609130859 5.41471529006958 C 2.227359771728516 5.41470193862915 2.210127592086792 5.412497997283936 2.19338583946228 5.408155918121338 Z" transform="matrix(1,0,0,1,7.9072442054748535,3.7767624855041504)" fill="#c47076" fill-rule="evenodd"/><path d="M 8.808417320251465 7.899178981781006 C 7.208758354187012 7.695676803588867 5.689401149749756 7.423707008361816 4.681582927703857 6.34488582611084 C 4.107516288757324 5.639768123626709 3.689034461975098 4.821228504180908 3.4535973072052 3.942984580993652 C 3.288596391677856 3.419966220855713 3.082228899002075 2.910913467407227 2.836456537246704 2.420638561248779 C 2.45880389213562 1.720914006233215 1.915219902992249 1.124550580978394 1.253387928009033 0.6838533282279968 C 1.123963236808777 0.5679587721824646 0.9681069254875183 0.485539585351944 0.7994625568389893 0.4438102245330811 C 0.6308181881904602 0.4020808041095734 0.4545259773731232 0.4023081958293915 0.2859905064105988 0.4444754421710968 C 0.2358286827802658 0.4657725095748901 0.1792560368776321 0.4662809669971466 0.1287155747413635 0.4458987414836884 C 0.07817508280277252 0.4255164861679077 0.03779798746109009 0.3859164118766785 0.01644482277333736 0.3357784450054169 C -0.004908338654786348 0.2856404185295105 -0.005489783827215433 0.2290666997432709 0.01483587268739939 0.1785034537315369 C 0.03516153246164322 0.1279401928186417 0.07473383098840714 0.08751820027828217 0.124847911298275 0.06610894948244095 C 0.3556947112083435 -0.006687893066555262 0.6012527346611023 -0.01960871182382107 0.838464081287384 0.02856160141527653 C 1.075675487518311 0.07673191279172897 1.296747922897339 0.1844137161970139 1.480915188789368 0.3414870798587799 C 2.198931932449341 0.8195459246635437 2.788658618927002 1.466507792472839 3.198346614837646 2.22561502456665 C 3.455116033554077 2.735210657119751 3.670443534851074 3.264656782150269 3.842252016067505 3.808807373046875 C 4.059239864349365 4.632406234741211 4.447581768035889 5.400933265686035 4.981899738311768 6.06418514251709 C 5.896298408508301 7.042829513549805 7.338179588317871 7.297672748565674 8.860337257385254 7.491340637207031 C 8.912176132202148 7.497922420501709 8.959559440612793 7.523997783660889 8.992859840393066 7.564269065856934 C 9.026158332824707 7.604541301727295 9.042869567871094 7.655978679656982 9.039596557617188 7.708131790161133 C 9.036323547363281 7.760283470153809 9.013311386108398 7.809238433837891 8.975238800048828 7.84503173828125 C 8.937165260314941 7.880824565887451 8.886897087097168 7.900768756866455 8.834641456604004 7.900818824768066 L 8.834641456604004 7.90084981918335 C 8.825868606567383 7.900856494903564 8.817117691040039 7.9003005027771 8.808417320251465 7.899178981781006 Z" transform="matrix(1,0,0,1,28.850696563720703,30.878393173217773)" fill="#c47076" fill-rule="evenodd"/><path d="M 7.39191722869873 4.343351364135742 C 6.118930816650391 4.339438915252686 4.87818717956543 3.942671775817871 3.839120864868164 3.207245826721191 C 3.371220111846924 2.856959342956543 2.928244113922119 2.474557161331177 2.513422727584839 2.06278657913208 C 1.861552119255066 1.334632754325867 1.050843834877014 0.7662748098373413 0.144056960940361 0.4017459452152252 C 0.09209584444761276 0.3854460418224335 0.04872468858957291 0.3491985201835632 0.02346300333738327 0.3009544312953949 C -0.001798680052161217 0.2527103424072266 -0.006894797086715698 0.1964137703180313 0.009307330474257469 0.1444220691919327 C 0.02550945617258549 0.09243036061525345 0.06168574467301369 0.04899482801556587 0.1098822429776192 0.02364243194460869 C 0.158078745007515 -0.00170995993539691 0.2143615782260895 -0.006911482196301222 0.2663836777210236 0.009192814119160175 C 1.233341217041016 0.3920696079730988 2.099027395248413 0.9926770329475403 2.796226739883423 1.764372825622559 C 3.197381496429443 2.162680149078369 3.625527620315552 2.532850027084351 4.077617168426514 2.872243881225586 C 5.046991348266602 3.558386564254761 6.204550266265869 3.928566455841064 7.3921799659729 3.932201862335205 C 7.446266174316406 3.932876825332642 7.497915744781494 3.954834699630737 7.535918712615967 3.993326902389526 C 7.573920249938965 4.031818389892578 7.595219612121582 4.083732604980469 7.595201969146729 4.137823581695557 C 7.595184803009033 4.19191312789917 7.573852062225342 4.243820667266846 7.535825729370117 4.282288551330566 C 7.497798442840576 4.320755958557129 7.446142673492432 4.342679977416992 7.392055988311768 4.343319892883301 L 7.392055988311768 4.343351364135742 L 7.39191722869873 4.343351364135742 Z" transform="matrix(1,0,0,1,28.259618759155273,36.37977981567383)" fill="#c47076" fill-rule="evenodd"/></g></g></g></g></g></svg>